                                                                        S      1
1H,,1H;,60HC:\Users\dand\Desktop\temp\ExportCad\doublets\IGES_67334.IGS,G      1
60HC:\Users\dand\Desktop\temp\ExportCad\doublets\IGES_67334.IGS,23HHarmoG      2
nyWare Translators,23HHarmonyWare IGES v2.0.2,32,38,6,308,15,,1.,2,2HMM,G      3
1,1.,15H20161213.151629,0.0001,197.153,,,11,0,15H20161213.151629;       G      4
     502       1       0       0       0       0       0       000010000D      1
     502       0       0       1       1                               0D      2
     126       2       0       0       0       0       0       000010000D      3
     126       0       0      11       0                               0D      4
     126      13       0       0       0       0       0       000010000D      5
     126       0       0      11       0                               0D      6
     126      24       0       0       0       0       0       000010000D      7
     126       0       0       2       0                               0D      8
     504      26       0       0       0       0       0       000010000D      9
     504       0       0       1       1                               0D     10
     128      27       0       0       0       0       0       000010000D     11
     128       0       0      18       0                               0D     12
     508      45       0       0       0       0       0       000010000D     13
     508       0       0       1       1                               0D     14
     406      46       0       0       0       0       0       000000000D     15
     406       0       0       1    7223                               0D     16
     510      47       0       0       0       0       0       000010000D     17
     510       0       0       1       1                               0D     18
     128      48       0       0       0       0       0       000010000D     19
     128       0       0      27       0                               0D     20
     508      75       0       0       0       0       0       000010000D     21
     508       0       0       1       1                               0D     22
     406      76       0       0       0       0       0       000000000D     23
     406       0       0       1    7223                               0D     24
     510      77       0       0       0       0       0       000010000D     25
     510       0       0       1       1                               0D     26
     128      78       0       0       0       0       0       000010000D     27
     128       0       0      15       0                               0D     28
     508      93       0       0       0       0       0       000010000D     29
     508       0       0       1       1                               0D     30
     406      94       0       0       0       0       0       000000000D     31
     406       0       0       1    7223                               0D     32
     510      95       0       0       0       0       0       000010000D     33
     510       0       0       1       1                               0D     34
     514      96       0       0       0       0       0       000010000D     35
     514       0       0       1       1                               0D     36
     186      97       0       0       0       0       0       000000000D     37
     186       0       0       1       0                               0D     38
     502      98       0       0       0       0       0       000010000D     39
     502       0       0       1       1                               0D     40
     126      99       0       0       0       0       0       000010000D     41
     126       0       0      11       0                               0D     42
     126     110       0       0       0       0       0       000010000D     43
     126       0       0      11       0                               0D     44
     126     121       0       0       0       0       0       000010000D     45
     126       0       0       2       0                               0D     46
     504     123       0       0       0       0       0       000010000D     47
     504       0       0       1       1                               0D     48
     128     124       0       0       0       0       0       000010000D     49
     128       0       0      28       0                               0D     50
     508     152       0       0       0       0       0       000010000D     51
     508       0       0       1       1                               0D     52
     406     153       0       0       0       0       0       000000000D     53
     406       0       0       1    7223                               0D     54
     510     154       0       0       0       0       0       000010000D     55
     510       0       0       1       1                               0D     56
     128     155       0       0       0       0       0       000010000D     57
     128       0       0      18       0                               0D     58
     508     173       0       0       0       0       0       000010000D     59
     508       0       0       1       1                               0D     60
     406     174       0       0       0       0       0       000000000D     61
     406       0       0       1    7223                               0D     62
     510     175       0       0       0       0       0       000010000D     63
     510       0       0       1       1                               0D     64
     128     176       0       0       0       0       0       000010000D     65
     128       0       0      15       0                               0D     66
     508     191       0       0       0       0       0       000010000D     67
     508       0       0       1       1                               0D     68
     406     192       0       0       0       0       0       000000000D     69
     406       0       0       1    7223                               0D     70
     510     193       0       0       0       0       0       000010000D     71
     510       0       0       1       1                               0D     72
     514     194       0       0       0       0       0       000010000D     73
     514       0       0       1       1                               0D     74
     186     195       0       0       0       0       0       000000000D     75
     186       0       0       1       0                               0D     76
502,2,12.5,0.,0.731272196949775,12.5,0.,1.83949355516567;              1P      1
126,8,2,0,1,0,0,0.,0.,0.,1.5707963267949,1.5707963267949,              3P      2
3.14159265358979,3.14159265358979,4.71238898038469,                    3P      3
4.71238898038469,6.28318530717959,6.28318530717959,                    3P      4
6.28318530717959,1.,0.707106781186548,1.,0.707106781186548,1.,         3P      5
0.707106781186548,1.,0.707106781186548,1.,12.5,0.,                     3P      6
0.731272196949775,12.5,12.5,0.731272196949775,                         3P      7
7.65404249467096D-16,12.5,0.731272196949775,-12.5,12.5,                3P      8
0.731272196949775,-12.5,1.53080849893419D-15,0.731272196949775,        3P      9
-12.5,-12.5,0.731272196949775,-2.29621274840129D-15,-12.5,             3P     10
0.731272196949775,12.5,-12.5,0.731272196949775,12.5,0.,                3P     11
0.731272196949775,0.,6.28318530717959,0.,0.,0.;                        3P     12
126,8,2,0,1,0,0,0.,0.,0.,1.5707963267949,1.5707963267949,              5P     13
3.14159265358979,3.14159265358979,4.71238898038469,                    5P     14
4.71238898038469,6.28318530717959,6.28318530717959,                    5P     15
6.28318530717959,1.,0.707106781186548,1.,0.707106781186548,1.,         5P     16
0.707106781186548,1.,0.707106781186548,1.,12.5,0.,                     5P     17
1.83949355516567,12.5,12.5,1.83949355516567,                           5P     18
7.65404249467096D-16,12.5,1.83949355516567,-12.5,12.5,                 5P     19
1.83949355516567,-12.5,1.53080849893419D-15,1.83949355516567,          5P     20
-12.5,-12.5,1.83949355516567,-2.29621274840129D-15,-12.5,              5P     21
1.83949355516567,12.5,-12.5,1.83949355516567,12.5,0.,                  5P     22
1.83949355516567,0.,6.28318530717959,0.,0.,0.;                         5P     23
126,1,1,0,0,1,0,0.,0.,1.,1.,1.,1.,12.5,0.,0.731272196949775,           7P     24
12.5,0.,1.83949355516567,0.,1.,0.,0.,0.;                               7P     25
504,3,3,1,1,1,1,5,1,2,1,2,7,1,1,1,2;                                   9P     26
128,4,4,2,2,0,0,0,0,0,0.,0.,0.,0.5,0.5,1.,1.,1.,0.,0.,0.,0.5,         11P     27
0.5,1.,1.,1.,1.,0.707106781186548,1.,0.707106781186548,1.,            11P     28
0.707106781186548,0.5,0.707106781186548,0.5,0.707106781186548,        11P     29
1.,0.707106781186548,1.,0.707106781186548,1.,0.707106781186548,       11P     30
0.5,0.707106781186548,0.5,0.707106781186548,1.,                       11P     31
0.707106781186548,1.,0.707106781186548,1.,-107.2,0.,107.2,            11P     32
-107.2,0.,107.2,-107.2,0.,107.2,-107.2,0.,107.2,-107.2,0.,107.2,      11P     33
-107.2,107.2,107.2,-107.2,107.2,5.58706293303134D-14,-107.2,          11P     34
6.91086945150208D-14,1.4210854715202D-14,-107.2,-107.2,               11P     35
-2.74489198999094D-14,-107.2,-107.2,107.2,-6.56410684342983D-15,      11P     36
107.2,107.2,-3.5932713986853D-14,107.2,-1.51836442456966D-14,         11P     37
-3.5932713986853D-14,2.64761303694148D-14,-1.4210854715202D-14,       11P     38
-3.5932713986853D-14,-107.2,-1.32380651847074D-14,                    11P     39
-6.56410684342982D-15,-107.2,107.2,107.2,107.2,107.2,107.2,           11P     40
107.2,-5.78162083913026D-14,107.2,1.22652756542128D-14,               11P     41
-4.2632564145606D-14,107.2,-107.2,-2.74489198999094D-14,107.2,        11P     42
-107.2,107.2,107.2,0.,107.2,107.2,0.,107.2,107.2,0.,107.2,107.2,      11P     43
0.,107.2,107.2,0.,107.2,0.,1.,0.,1.;                                  11P     44
508,1,0,9,1,1,0;                                                      13P     45
406,1,1;                                                              15P     46
510,11,1,1,13,0,1,15;                                                 17P     47
128,4,4,2,2,0,0,0,0,0,0.,0.,0.,0.5,0.5,1.,1.,1.,0.,0.,0.,0.5,         19P     48
0.5,1.,1.,1.,1.,0.707106781186548,1.,0.707106781186548,1.,            19P     49
0.707106781186548,0.5,0.707106781186548,0.5,0.707106781186548,        19P     50
1.,0.707106781186548,1.,0.707106781186548,1.,0.707106781186548,       19P     51
0.5,0.707106781186548,0.5,0.707106781186548,1.,                       19P     52
0.707106781186548,1.,0.707106781186548,1.,67.8999999999999,0.,        19P     53
-64.8999999999999,67.8999999999999,0.,-64.8999999999999,              19P     54
67.8999999999999,0.,-64.8999999999999,67.8999999999999,0.,            19P     55
-64.8999999999999,67.8999999999999,0.,-64.8999999999999,              19P     56
67.8999999999999,67.8999999999999,-64.8999999999999,                  19P     57
67.8999999999999,67.8999999999999,2.99999999999995,                   19P     58
67.8999999999999,2.37164928668052D-14,2.99999999999997,               19P     59
67.8999999999999,-67.8999999999998,3.,67.8999999999999,               19P     60
-67.8999999999999,-64.8999999999999,-2.49009001047268D-14,            19P     61
67.8999999999999,-64.8999999999999,2.33966526842292D-15,              19P     62
67.8999999999998,3.,1.68689532623389D-14,-1.92345045575149D-14,       19P     63
2.99999999999999,3.1398241256255D-14,-67.8999999999999,               19P     64
2.99999999999998,4.15767588310526D-15,-67.8999999999999,              19P     65
-64.8999999999999,-67.8999999999999,67.8999999999998,                 19P     66
-64.8999999999998,-67.8999999999999,67.8999999999998,                 19P     67
3.00000000000004,-67.8999999999999,-6.21855019818349D-14,3.,          19P     68
-67.8999999999999,-67.8999999999999,2.99999999999997,                 19P     69
-67.8999999999999,-67.8999999999999,-64.8999999999999,                19P     70
-67.8999999999999,0.,-64.8999999999999,-67.8999999999999,0.,          19P     71
-64.8999999999999,-67.8999999999999,0.,-64.8999999999999,             19P     72
-67.8999999999999,0.,-64.8999999999999,-67.8999999999999,0.,          19P     73
-64.8999999999999,0.,1.,0.,1.;                                        19P     74
508,1,0,9,2,0,0;                                                      21P     75
406,1,2;                                                              23P     76
510,19,1,1,21,0,1,23;                                                 25P     77
128,8,1,2,1,1,0,0,0,0,0.,0.,0.,0.25,0.25,0.5,0.5,0.75,0.75,1.,        27P     78
1.,1.,0.,0.,1.,1.,1.,0.707106781186548,1.,0.707106781186548,1.,       27P     79
0.707106781186548,1.,0.707106781186548,1.,1.,0.707106781186548,       27P     80
1.,0.707106781186548,1.,0.707106781186548,1.,0.707106781186548,       27P     81
1.,12.5,0.,0.731272196949775,12.5,-12.5,0.731272196949775,            27P     82
-4.73870340257663D-15,-12.5,0.731272196949775,-12.5,-12.5,            27P     83
0.731272196949775,-12.5,5.97170059743482D-15,0.731272196949775,       27P     84
-12.5,12.5,0.731272196949775,2.76380569379238D-15,12.5,               27P     85
0.731272196949775,12.5,12.5,0.731272196949775,12.5,0.,                27P     86
0.731272196949775,12.5,0.,1.83949355516567,12.5,-12.5,                27P     87
1.83949355516567,-4.73870340257663D-15,-12.5,1.83949355516567,        27P     88
-12.5,-12.5,1.83949355516567,-12.5,5.97170059743482D-15,              27P     89
1.83949355516567,-12.5,12.5,1.83949355516567,                         27P     90
2.76380569379238D-15,12.5,1.83949355516567,12.5,12.5,                 27P     91
1.83949355516567,12.5,0.,1.83949355516567,0.,1.,0.,1.;                27P     92
508,4,0,9,3,0,0,0,9,1,0,0,0,9,3,1,0,0,9,2,1,0;                        29P     93
406,1,0;                                                              31P     94
510,27,1,1,29,0,1,31;                                                 33P     95
514,3,17,1,25,1,33,1;                                                 35P     96
186,35,0,0;                                                           37P     97
502,2,12.5,0.,1.83949355516567,12.5,0.,5.06357622688794;              39P     98
126,8,2,0,1,0,0,0.,0.,0.,1.5707963267949,1.5707963267949,             41P     99
3.14159265358979,3.14159265358979,4.71238898038469,                   41P    100
4.71238898038469,6.28318530717959,6.28318530717959,                   41P    101
6.28318530717959,1.,0.707106781186548,1.,0.707106781186548,1.,        41P    102
0.707106781186548,1.,0.707106781186548,1.,12.5,0.,                    41P    103
1.83949355516567,12.5,12.5,1.83949355516567,                          41P    104
7.65404249467096D-16,12.5,1.83949355516567,-12.5,12.5,                41P    105
1.83949355516567,-12.5,1.53080849893419D-15,1.83949355516567,         41P    106
-12.5,-12.5,1.83949355516567,-2.29621274840129D-15,-12.5,             41P    107
1.83949355516567,12.5,-12.5,1.83949355516567,12.5,0.,                 41P    108
1.83949355516567,0.,6.28318530717959,0.,0.,0.;                        41P    109
126,8,2,0,1,0,0,0.,0.,0.,1.5707963267949,1.5707963267949,             43P    110
3.14159265358979,3.14159265358979,4.71238898038469,                   43P    111
4.71238898038469,6.28318530717959,6.28318530717959,                   43P    112
6.28318530717959,1.,0.707106781186548,1.,0.707106781186548,1.,        43P    113
0.707106781186548,1.,0.707106781186548,1.,12.5,0.,                    43P    114
5.06357622688794,12.5,12.5,5.06357622688794,                          43P    115
7.65404249467096D-16,12.5,5.06357622688794,-12.5,12.5,                43P    116
5.06357622688794,-12.5,1.53080849893419D-15,5.06357622688794,         43P    117
-12.5,-12.5,5.06357622688794,-2.29621274840129D-15,-12.5,             43P    118
5.06357622688794,12.5,-12.5,5.06357622688794,12.5,0.,                 43P    119
5.06357622688794,0.,6.28318530717959,0.,0.,0.;                        43P    120
126,1,1,0,0,1,0,0.,0.,1.,1.,1.,1.,12.5,0.,1.83949355516567,12.5,      45P    121
0.,5.06357622688794,0.,1.,0.,0.,0.;                                   45P    122
504,3,41,39,1,39,1,43,39,2,39,2,45,39,1,39,2;                         47P    123
128,4,4,2,2,0,0,0,0,0,0.,0.,0.,0.5,0.5,1.,1.,1.,0.,0.,0.,0.5,         49P    124
0.5,1.,1.,1.,1.,0.707106781186548,1.,0.707106781186548,1.,            49P    125
0.707106781186548,0.5,0.707106781186548,0.5,0.707106781186548,        49P    126
1.,0.707106781186548,1.,0.707106781186548,1.,0.707106781186548,       49P    127
0.5,0.707106781186548,0.5,0.707106781186548,1.,                       49P    128
0.707106781186548,1.,0.707106781186548,1.,67.8999999999999,0.,        49P    129
-64.8999999999999,67.8999999999999,0.,-64.8999999999999,              49P    130
67.8999999999999,0.,-64.8999999999999,67.8999999999999,0.,            49P    131
-64.8999999999999,67.8999999999999,0.,-64.8999999999999,              49P    132
67.8999999999999,-67.8999999999999,-64.8999999999999,                 49P    133
67.8999999999999,-67.8999999999998,2.99999999999998,                  49P    134
67.8999999999999,1.92345045575149D-14,2.99999999999997,               49P    135
67.8999999999999,67.8999999999999,2.99999999999997,                   49P    136
67.8999999999999,67.8999999999999,-64.8999999999999,                  49P    137
4.15767588310527D-15,-67.8999999999999,-64.8999999999998,             49P    138
1.88419794548168D-14,-67.8999999999998,3.00000000000001,              49P    139
1.88419794548168D-14,3.34453592727169D-14,2.99999999999999,           49P    140
1.88419794548168D-14,67.8999999999999,2.99999999999997,               49P    141
4.15767588310526D-15,67.8999999999999,-64.8999999999999,              49P    142
-67.8999999999999,-67.8999999999999,-64.8999999999998,                49P    143
-67.8999999999999,-67.8999999999998,3.00000000000004,                 49P    144
-67.8999999999999,4.76562139879189D-14,3.,-67.8999999999999,          49P    145
67.8999999999999,2.99999999999997,-67.8999999999999,                  49P    146
67.8999999999999,-64.8999999999999,-67.8999999999999,0.,              49P    147
-64.8999999999999,-67.8999999999999,0.,-64.8999999999999,             49P    148
-67.8999999999999,0.,-64.8999999999999,-67.8999999999999,0.,          49P    149
-64.8999999999999,-67.8999999999999,0.,-64.8999999999999,0.,1.,       49P    150
0.,1.;                                                                49P    151
508,1,0,47,1,1,0;                                                     51P    152
406,1,1;                                                              53P    153
510,49,1,1,51,0,1,53;                                                 55P    154
128,4,4,2,2,0,0,0,0,0,0.,0.,0.,0.5,0.5,1.,1.,1.,0.,0.,0.,0.5,         57P    155
0.5,1.,1.,1.,1.,0.707106781186548,1.,0.707106781186548,1.,            57P    156
0.707106781186548,0.5,0.707106781186548,0.5,0.707106781186548,        57P    157
1.,0.707106781186548,1.,0.707106781186548,1.,0.707106781186548,       57P    158
0.5,0.707106781186548,0.5,0.707106781186548,1.,                       57P    159
0.707106781186548,1.,0.707106781186548,1.,179.23,0.,-173.73,          57P    160
179.23,0.,-173.73,179.23,0.,-173.73,179.23,0.,-173.73,179.23,0.,      57P    161
-173.73,179.23,179.23,-173.73,179.23,179.23,5.49999999999982,         57P    162
179.23,2.03461881552327D-13,5.49999999999994,179.23,-179.23,          57P    163
5.50000000000008,179.23,-179.23,-173.73,-1.05259631660769D-13,        57P    164
179.23,-173.73,3.70262983182944D-15,179.23,5.49999999999996,          57P    165
6.18197818074937D-14,3.1657891855047D-14,5.49999999999997,            57P    166
1.19936933783158D-13,-179.23,5.49999999999999,                        57P    167
1.0974672290559D-14,-179.23,-173.73,-179.23,179.23,-173.73,           57P    168
-179.23,179.23,5.50000000000013,-179.23,-1.40146097842233D-13,        57P    169
5.50000000000003,-179.23,-179.23,5.49999999999994,-179.23,            57P    170
-179.23,-173.73,-179.23,0.,-173.73,-179.23,0.,-173.73,-179.23,        57P    171
0.,-173.73,-179.23,0.,-173.73,-179.23,0.,-173.73,0.,1.,0.,1.;         57P    172
508,1,0,47,2,0,0;                                                     59P    173
406,1,2;                                                              61P    174
510,57,1,1,59,0,1,61;                                                 63P    175
128,8,1,2,1,1,0,0,0,0,0.,0.,0.,0.25,0.25,0.5,0.5,0.75,0.75,1.,        65P    176
1.,1.,0.,0.,1.,1.,1.,0.707106781186548,1.,0.707106781186548,1.,       65P    177
0.707106781186548,1.,0.707106781186548,1.,1.,0.707106781186548,       65P    178
1.,0.707106781186548,1.,0.707106781186548,1.,0.707106781186548,       65P    179
1.,12.5,0.,1.83949355516567,12.5,-12.5,1.83949355516567,              65P    180
-4.73870340257663D-15,-12.5,1.83949355516567,-12.5,-12.5,             65P    181
1.83949355516567,-12.5,5.97170059743482D-15,1.83949355516567,         65P    182
-12.5,12.5,1.83949355516567,2.76380569379238D-15,12.5,                65P    183
1.83949355516567,12.5,12.5,1.83949355516567,12.5,0.,                  65P    184
1.83949355516567,12.5,0.,5.06357622688795,12.5,-12.5,                 65P    185
5.06357622688795,-4.68143218952958D-15,-12.5,5.06357622688795,        65P    186
-12.5,-12.5,5.06357622688795,-12.5,5.97170059743482D-15,              65P    187
5.06357622688795,-12.5,12.5,5.06357622688795,                         65P    188
2.82107690683943D-15,12.5,5.06357622688795,12.5,12.5,                 65P    189
5.06357622688795,12.5,0.,5.06357622688795,0.,1.,0.,1.;                65P    190
508,4,0,47,3,0,0,0,47,1,0,0,0,47,3,1,0,0,47,2,1,0;                    67P    191
406,1,0;                                                              69P    192
510,65,1,1,67,0,1,69;                                                 71P    193
514,3,55,1,63,1,71,1;                                                 73P    194
186,73,0,0;                                                           75P    195
S      1G      4D     76P    195                                        T      1
